<?xml version="1.0" encoding="utf-8"?>
<!-- Generator: Adobe Illustrator 26.3.1, SVG Export Plug-In . SVG Version: 6.00 Build 0)  -->
<svg version="1.0" id="Capa_1" xmlns="http://www.w3.org/2000/svg" xmlns:xlink="http://www.w3.org/1999/xlink" x="0px" y="0px"
	 viewBox="0 0 26.29 20.46" style="enable-background:new 0 0 26.29 20.46;" xml:space="preserve">
<g>
	<g>
		<path d="M20.99,14.21c0.01,0.33-0.18,0.48-0.5,0.4c-0.96-0.24-1.94-0.37-2.94-0.36c-1.74,0.02-3.4,0.38-4.97,1.13
			c-0.11,0.05-0.21,0.11-0.33,0.15c-0.26,0.1-0.49-0.08-0.46-0.36c0.01-0.07,0.03-0.13,0.05-0.19c0.44-1.3,0.71-2.63,0.8-4
			c0.17-2.7-0.35-5.26-1.59-7.66c-0.25-0.49-0.53-0.95-0.83-1.41c-0.08-0.13-0.14-0.26-0.06-0.41c0.09-0.17,0.25-0.22,0.48-0.15
			c0.98,0.31,1.91,0.73,2.79,1.26c2.9,1.74,5.04,4.15,6.42,7.24c0.61,1.36,0.97,2.79,1.13,4.27C20.99,14.14,20.99,14.18,20.99,14.21
			z"/>
		<path d="M12.26,19.24c-2.05,0-4.11,0-6.16,0c-0.25,0-0.4-0.09-0.51-0.32C5.3,18.33,5,17.74,4.71,17.15
			c-0.17-0.35-0.05-0.57,0.34-0.6c0.37-0.03,0.74-0.02,1.11-0.04c0.88-0.05,1.76-0.06,2.65-0.1c1.46-0.06,2.92-0.12,4.38-0.19
			c0.74-0.03,1.49-0.06,2.23-0.09c1.53-0.06,3.07-0.11,4.6-0.17c0.43-0.02,0.86-0.04,1.29-0.07c0.38-0.02,0.54,0.17,0.45,0.54
			c-0.39,1.65-1.82,2.79-3.52,2.79C16.24,19.24,14.25,19.24,12.26,19.24z"/>
		<path d="M11.78,9.75c-0.01,1.94-0.29,3.66-0.87,5.33c-0.14,0.41-0.27,0.46-0.67,0.29c-1.31-0.56-2.65-0.63-4.01-0.19
			c-0.04,0.01-0.09,0.03-0.13,0.04c-0.16,0.04-0.31,0.03-0.41-0.12c-0.11-0.15-0.08-0.3,0.03-0.44c0.19-0.24,0.37-0.49,0.55-0.73
			c1.69-2.36,2.76-4.98,3.24-7.84c0.14-0.85,0.2-1.7,0.24-2.56c0.01-0.19,0.07-0.33,0.26-0.37c0.18-0.05,0.33,0.04,0.42,0.25
			c0.59,1.4,0.99,2.85,1.19,4.36C11.72,8.48,11.76,9.2,11.78,9.75z"/>
	</g>
</g>
</svg>
