<?xml version="1.0" encoding="utf-8"?>
<!-- Generator: Adobe Illustrator 26.3.1, SVG Export Plug-In . SVG Version: 6.00 Build 0)  -->
<svg version="1.0" id="Capa_1" xmlns="http://www.w3.org/2000/svg" xmlns:xlink="http://www.w3.org/1999/xlink" x="0px" y="0px"
	 viewBox="0 0 138 148" style="enable-background:new 0 0 138 148;" xml:space="preserve">
<style type="text/css">
	.st0{fill:#DFA443;}
	.st1{fill:#EFE4CE;}
	.st2{fill:#002847;}
	.st3{fill:#BF3130;}
	.st4{fill:#0A080A;}
</style>
<g>
	<path class="st0" d="M127.82,77.58c0,0-28.99,21.99-66.63,13.78c-7.62-1.66-27.87-13.72-31.71-28.14l-5.2-2.49l-5.73,45.4
		c5.58,9.1,32.64,7.74,47.49,4.6C89.29,105.81,120.09,86.3,127.82,77.58z"/>
	<path class="st1" d="M21.83,108.05l-6.8,20.73c58.16-0.49,76.62-2.38,110.77-48.44C81.35,115.34,43.76,112.48,21.83,108.05z"/>
	<line class="st2" x1="126.82" y1="79.58" x2="119.09" y2="80.45"/>
	<path class="st3" d="M127.82,78.58c-9.98,1.93,0.71,0.66-7.73,0.87c-42.8,1.1-66.47-17.5-78.55-32.59
		c-8.08-10.09-10.99-18.6-10.99-18.6l-6.26,27.85C27.11,66.83,34.35,81.2,51.59,88.9C89.05,105.63,127.82,78.58,127.82,78.58z"/>
	<path class="st1" d="M120.09,79.45l7.73-0.87L38.3,22.47l-5.71,19.82C44.68,57.38,77.29,80.56,120.09,79.45z"/>
</g>
<path class="st4" d="M132.66,79.31c-6.49-2.12-80.72-57.56-97.74-69.76c-1.68-1.21-3.07,1.54-3.46,3.57L12.76,121.04l-1.42,4.78
	c2.05,3.41,5.18,6.84,5.95,2.94L38.3,22.47l82.88,58.67C124.87,83.75,129.97,82.94,132.66,79.31L132.66,79.31z"/>
</svg>
