<?xml version="1.0" standalone="no"?>
<!DOCTYPE svg PUBLIC "-//W3C//DTD SVG 1.1//EN" "http://www.w3.org/Graphics/SVG/1.1/DTD/svg11.dtd" >
<svg xmlns="http://www.w3.org/2000/svg">
<metadata>Generated by IcoMoon</metadata>
<defs>
<font id="icomoon" horiz-adv-x="1024">
<font-face units-per-em="1024" ascent="960" descent="-64" />
<missing-glyph horiz-adv-x="1024" />
<glyph unicode="&#x20;" horiz-adv-x="512" d="" />
<glyph unicode="&#xe900;" glyph-name="instagram" horiz-adv-x="1316" d="M1125.099 446.999c0-72.070 0.5-144.141 0-216.211-3.003-136.133-112.61-246.24-248.743-249.243-145.642-0.5-290.784-0.5-436.426 0-135.632 3.003-244.739 112.109-248.242 247.742-1.001 146.143-1.001 292.285 0 438.428 3.503 134.131 111.609 242.737 246.24 247.241 146.643 1.001 293.286 1.001 439.93 0 134.631-4.504 242.737-113.11 246.741-247.742 1.001-73.572 0-146.643 0.5-220.215zM659.144 701.247c-140.137 0.5-253.748-112.109-254.749-252.246s112.109-253.748 252.246-254.749c139.636-0.5 253.748 112.109 254.749 251.746 0.5 140.137-112.109 253.748-252.246 255.249zM927.406 644.692c39.539-2.002 73.572 28.528 75.574 68.066 0 2.002 0 3.503 0 5.505 0 41.040-33.032 74.573-74.072 74.573s-74.573-33.032-74.573-74.072c-1.001-39.539 30.029-73.071 69.568-74.072 1.501 0 2.502 0 3.503 0zM859.339 448.5c0-111.109-90.088-201.697-201.196-201.697s-201.697 90.088-201.697 201.196c0 111.109 90.088 201.697 201.196 201.697 110.108 1.501 200.196-86.585 201.697-196.692 0-1.501 0-3.003 0-4.504zM929.408 743.288c13.013-1.001 23.523-12.012 23.523-25.024-1.001-13.013-11.511-23.523-25.024-23.523-13.013 1.001-23.523 11.511-23.523 24.524 1.001 13.013 11.511 23.523 25.024 24.023z" />
<glyph unicode="&#xe901;" glyph-name="barco" horiz-adv-x="1316" d="M1050.526 248.805c0.5-16.516-9.009-24.023-25.024-20.020-48.047 12.012-97.095 18.518-147.144 18.018-87.085-1.001-170.166-19.019-248.743-56.555-5.505-2.502-10.51-5.505-16.516-7.507-13.013-5.005-24.524 4.004-23.022 18.018 0.5 3.503 1.501 6.506 2.502 9.509 22.022 65.064 35.535 131.629 40.039 200.196 8.508 135.132-17.517 263.257-79.578 383.374-12.512 24.524-26.526 47.546-41.541 70.569-4.004 6.506-7.007 13.013-3.003 20.52 4.504 8.508 12.512 11.011 24.023 7.507 49.048-15.515 95.593-36.536 139.636-63.062 145.142-87.085 252.246-207.703 321.314-362.354 30.53-68.066 48.547-139.636 56.555-213.709 0.5-1.001 0.5-3.003 0.5-4.504zM613.599-2.94c-102.6 0-205.701 0-308.301 0-12.512 0-20.020 4.504-25.525 16.016-14.514 29.529-29.529 59.058-44.043 88.587-8.508 17.517-2.502 28.528 17.017 30.029 18.518 1.501 37.036 1.001 55.554 2.002 44.043 2.502 88.086 3.003 132.63 5.005 73.071 3.003 146.143 6.006 219.214 9.509 37.036 1.501 74.573 3.003 111.609 4.504 76.575 3.003 153.65 5.505 230.225 8.508 21.521 1.001 43.042 2.002 64.563 3.503 19.019 1.001 27.026-8.508 22.522-27.026-19.519-82.581-91.089-139.636-176.172-139.636-100.098-1.001-199.695-1.001-299.292-1.001zM589.576 472.023c-0.5-97.095-14.514-183.179-43.543-266.761-7.007-20.52-13.513-23.022-33.533-14.514-65.564 28.027-132.63 31.531-200.696 9.509-2.002-0.5-4.504-1.501-6.506-2.002-8.008-2.002-15.515-1.501-20.52 6.006-5.505 7.507-4.004 15.015 1.501 22.022 9.509 12.012 18.518 24.524 27.527 36.536 84.583 118.115 138.135 249.243 162.158 392.383 7.007 42.542 10.010 85.083 12.012 128.125 0.5 9.509 3.503 16.516 13.013 18.518 9.009 2.502 16.516-2.002 21.021-12.512 29.529-70.068 49.548-142.639 59.558-218.213 5.005-35.535 7.007-71.57 8.008-99.097z" />
<glyph unicode="&#xe902;" horiz-adv-x="1248" d="M150.635 350.528c3.819 8.619 3.221 18.027 4.608 27.072 13.483 88.021 46.016 167.936 101.867 237.675 13.589 16.96 27.755 33.664 47.531 44.395 22.123 12.011 45.845 15.701 70.528 15.104 33.92-0.811 65.771-10.688 97.088-22.677 3.989 1.6 7.637 0.661 11.435-1.024 39.744-17.451 75.733-40.96 109.568-67.904 57.579-45.845 105.792-99.968 143.403-163.349 24.085-40.597 42.688-83.499 48.555-130.667 4.288-34.453 2.773-68.629-16.533-99.52-7.275-11.648-16.811-21.227-27.072-30.165-16.341-16.085-35.051-29.184-54.997-42.539 7.339-3.605 14.101-2.368 20.523-2.048 28.544 1.429 56.747 5.035 84.203 13.483 3.819 1.173 7.488 2.261 10.645 4.779 29.376 9.856 55.659 25.301 79.701 44.629 27.669 22.272 50.688 48.747 68.011 79.765 21.291 38.101 33.856 78.784 36.459 122.752 2.923 49.472-6.507 96.981-19.776 144-11.584 41.045-27.733 80.341-47.040 118.357-3.371 6.656-6.272 13.44-3.136 21.12 1.707 4.181 3.861 7.68 9.195 7.083 15.637 2.539 18.517 0.875 25.835-13.483 31.339-61.483 53.824-125.973 65.323-194.091 16.661-98.816-2.645-189.269-66.923-267.413-52.331-63.616-120.213-101.333-202.219-112.811-37.461-5.248-74.645-3.968-111.488 4.544-5.867 1.365-10.944 0.725-16.384-1.685-57.579-25.536-117.739-40.448-180.779-42.859-57.024-2.176-111.851 6.635-162.56 34.475-56.896 31.253-92.864 79.211-111.829 140.629-5.952 19.285-9.451 39.061-11.84 59.072-0.213 1.813 0.533 4.117-1.899 5.163 0 17.6 0 35.179 0 52.779 1.323 2.261 1.323 4.544 0 6.805 0 2.88 0 5.717 0 8.555z" />
<glyph unicode="&#xe903;" horiz-adv-x="1248" d="M150.635 342.016c2.496-2.261 1.877-4.544 0-6.805 0 2.261 0 4.523 0 6.805z" />
<glyph unicode="&#xe904;" horiz-adv-x="1248" d="M925.419 670.848c-7.979-8.533-7.061-17.323-2.005-27.221 29.653-57.899 50.901-118.656 62.187-182.869 13.973-79.531 2.667-154.261-42.539-222.144-32.768-49.216-77.035-84.971-132.032-107.157-2.603-1.045-5.397-1.621-8.107-2.432-7.381-0.619-14.101 1.451-20.629 4.779-11.84 6.037-23.851 11.755-35.221 18.645-3.584 2.176-7.659 4.053-7.744 9.216 10.987 11.797 22.784 22.869 30.016 37.76 7.403 15.275 11.883 31.189 13.013 48.085 3.349 50.048-11.243 96.021-33.109 139.925-36.608 73.493-88.576 134.741-151.744 186.859-31.168 25.728-64.661 47.808-100.608 66.176-8.064 4.117-16.405 7.723-24.619 11.584 4.885 8.96 10.752 17.408 14.208 27.115 16.277 0.235 22.336 12.971 29.931 24.128 25.131 36.971 53.099 71.445 89.92 97.579 19.029 13.504 39.381 24.725 62.4 30.080 39.936 9.323 77.653 3.221 113.109-17.045 38.293-21.909 68.139-53.013 94.763-87.637 8.875-11.541 15.168-26.475 33.216-26.667 4.331-10.048 12.395-18.091 15.595-28.757z" />
<glyph unicode="&#xe905;" horiz-adv-x="1248" d="M909.824 699.627c-11.605-5.099-16.32-4.075-24.277 7.168-12.309 17.365-25.024 34.432-39.765 49.771-28.096 29.205-58.411 55.488-98.304 67.627-44.587 13.568-86.080 6.080-125.312-18.133-37.12-22.891-65.6-54.464-90.859-89.323-7.488-10.325-14.336-21.077-21.675-31.509-6.72-9.536-13.525-11.2-23.125-6.037-8.576 8.747-9.408 13.909-3.072 23.765 21.227 33.045 44.373 64.64 73.024 91.733 25.536 24.149 53.696 44.608 87.083 56.789 16.363 5.973 33.173 9.173 50.752 10.219 51.904 3.115 95.104-16.789 134.805-47.723 32.853-25.579 59.285-56.875 82.581-91.051 6.016-8.832 5.44-14.891-1.856-23.296z" />
<glyph unicode="&#xe906;" horiz-adv-x="1248" d="M302.272 423.68c9.216 8.555 10.389 12.885 5.035 24.747-10.752 23.851-19.947 48.213-24.491 74.069-3.349 19.093-4.523 38.357-0.512 57.493 7.915 37.803 37.184 61.547 76.864 63.659 36.352 1.941 70.379-7.232 103.168-21.355 75.52-32.533 137.195-83.541 190.336-145.408 37.269-43.349 67.776-90.923 86.4-145.365 10.283-30.059 16.277-60.715 11.072-92.757-5.568-34.325-30.635-59.52-65.045-65.152-31.744-5.184-62.144 0.747-91.925 10.923-61.76 21.077-114.347 57.131-162.176 100.693-35.179 32.043-66.155 67.755-92.288 107.584-5.099 7.765-11.115 12.885-21.077 10.325-10.24-0.939-18.539 10.176-15.36 20.544z" />
<glyph unicode="&#xe907;" horiz-adv-x="1248" d="M302.272 423.68c5.077-6.891 5.845-16.981 15.339-20.565-11.797-8.192-13.141-15.083-5.077-27.029 50.453-74.965 113.408-137.024 191.061-183.595 45.952-27.563 94.656-47.701 148.907-51.648 0.491-0.043 0.939-0.512 1.92-1.067-1.899-3.456-5.483-4.672-8.512-6.336-56.619-31.040-116.757-50.837-181.184-57.365-53.269-5.397-105.323-1.963-155.2 19.285-10.432 4.437-20.715 9.237-29.675 16.405-6.613 6.784-10.219 15.147-13.163 24.043-14.357 43.243-20.032 87.765-17.771 133.077 2.368 47.488 12.181 93.675 28.779 138.304 1.195 3.179 2.603 6.272 3.883 9.429 1.984 4.864 5.376 7.040 10.667 5.632 3.349 0.469 6.699 0.939 10.027 1.429z" />
<glyph unicode="&#xe908;" horiz-adv-x="1248" d="M292.245 422.251c-4.48-1.131-5.931-4.8-7.381-8.597-16.661-43.413-27.008-88.128-30.699-134.613-3.968-49.963 2.24-98.347 17.984-145.685 2.411-7.253 5.12-14.4 7.701-21.589-31.019 18.219-53.397 44.48-69.845 75.989-16.789 32.171-25.131 66.731-27.157 102.848-5.056 89.813 17.173 173.013 60.907 250.987 1.088 1.92 2.453 3.691 4.907 7.36 1.195-17.301 3.712-32.448 7.211-47.445 5.568-23.851 14.379-46.549 24.64-68.736 2.453-5.248 6.699-8.277 11.733-10.517z" />
<glyph unicode="&#xe909;" horiz-adv-x="995" d="M870.607 448.138c0-206.067-167.050-373.117-373.117-373.117s-373.117 167.050-373.117 373.117c0 206.067 167.050 373.117 373.117 373.117s373.117-167.050 373.117-373.117z" />
<glyph unicode="&#xe90a;" horiz-adv-x="995" d="M497.49 74.744c-205.629 0-373.117 167.488-373.117 373.117s167.212 373.394 373.117 373.394c205.629 0 373.117-167.488 373.117-373.117s-167.488-373.394-373.117-373.394zM497.49 793.617c-190.428 0-345.479-155.051-345.479-345.479s155.051-345.479 345.479-345.479 345.479 155.051 345.479 345.479c0 190.428-155.051 345.479-345.479 345.479z" />
<glyph unicode="&#xe90b;" horiz-adv-x="995" d="M549.726 314.092l-134.046 134.046 134.046 133.77 19.347-19.623-114.146-114.146 114.146-114.423z" />
<glyph unicode="&#xe90c;" horiz-adv-x="995" d="M870.607 447.862c0-206.067-167.050-373.117-373.117-373.117s-373.117 167.050-373.117 373.117c0 206.067 167.050 373.117 373.117 373.117s373.117-167.050 373.117-373.117z" />
<glyph unicode="&#xe90d;" horiz-adv-x="995" d="M497.49 821.256c205.629 0 373.117-167.488 373.117-373.117s-167.488-373.117-373.117-373.117c-205.629 0-373.117 167.488-373.117 373.117s167.212 373.117 373.117 373.117zM497.49 102.383c190.428 0 345.479 155.051 345.479 345.479s-155.051 345.479-345.479 345.479-345.479-154.775-345.479-345.479c0-190.428 154.775-345.479 345.479-345.479z" />
<glyph unicode="&#xe90e;" horiz-adv-x="995" d="M444.977 581.908l134.046-134.046-134.046-133.77-19.347 19.623 114.146 114.146-114.146 114.423z" />
<glyph unicode="&#xe90f;" glyph-name="clock" horiz-adv-x="995" d="M478.972 100.172c-197.614 0-358.193 160.579-358.193 357.916s160.579 357.916 357.916 357.916c197.614 0 358.193-160.579 358.193-357.916s-160.579-357.916-357.916-357.916zM478.696 760.728c-166.935 0-302.64-135.704-302.64-302.64s135.981-302.64 302.916-302.64c166.935 0 302.64 135.704 302.64 302.64s-135.981 302.64-302.916 302.64zM611.083 364.394c-4.146 0-8.291 0.829-12.437 3.040l-132.111 66.056c-9.397 4.699-15.201 14.372-15.201 24.598v198.167c0 15.201 12.437 27.638 27.638 27.638s27.638-12.437 27.638-27.638v-181.031l116.91-58.317c13.543-6.91 19.070-23.493 12.161-37.312-4.699-9.673-14.372-15.201-24.598-15.201z" />
<glyph unicode="&#xe910;" horiz-adv-x="1248" d="M739.328 161.664c20.565-12.096 41.749-23.019 63.595-32.64-22.699-10.347-46.933-14.635-71.467-16.64-18.411-1.493-37.077-4.16-57.685 1.344 23.979 14.741 45.035 30.976 65.557 47.936z" />
<glyph unicode="&#xe911;" horiz-adv-x="1248" d="M630.763 311.275c2.325-4.245 4.075-8.725 5.12-13.461-0.491-6.272-2.752-10.837-10.155-10.283-4.373 2.496-10.859 2.112-12.203 8.811-6.571 12.352-16.576 14.784-29.056 10.091-4.181 2.603-9.365 3.84-11.883 8.704-2.773 1.237-2.773 3.797-3.307 6.315-1.941 9.088-6.677 12.053-15.872 10.112-2.432-0.512-4.8-1.856-7.253-0.171-4.373 2.709-9.621 4.523-10.667 10.581-2.517 13.099-10.923 18.709-23.765 18.709-5.504 0.789-7.872 5.931-12.011 8.597-2.283 2.005-1.643 4.523-1.515 7.104 0.533 9.707-2.048 12.885-11.52 14.187-2.517 0.341-5.141 0.192-7.104 2.261-5.696 1.451-9.173 5.141-10.731 10.731-1.941 2.091-1.408 4.565-1.365 7.083 0.171 8.768-3.285 12.715-12.032 13.696-2.475 0.277-5.099-0.256-6.528 2.517-4.629 2.773-7.765 6.635-8.768 12.053-0.747 2.453-0.576 4.885-0.299 7.424 1.088 9.685-1.472 13.205-11.029 15.147-2.261 0.448-4.437 0.597-5.547 2.965-4.907 2.496-6.101 7.659-8.64 11.883-0.555 1.963-0.32 3.733 0.384 5.717 3.968 11.051 3.2 13.312-6.443 19.285-1.749 1.067-3.243 2.176-4.075 4.032-7.253 1.045-6.101 8.171-8.939 12.416 0 6.955 4.203 9.472 10.389 9.92 5.013-1.707 11.456-1.472 12.331-8.917 1.493-0.789 3.179-1.515 3.925-3.072 4.587-9.685 11.669-11.243 20.821-6.699 1.365 0.683 2.752 0.021 4.117-0.192 4.907-1.685 9.877-3.307 12.032-8.768 2.688-1.131 3.072-3.627 3.797-6.059 2.752-9.109 5.653-11.051 15.211-9.813 2.368 0.299 4.373-0.021 6.421-0.917 5.803-0.512 9.963-3.285 12.096-8.832 3.157-1.749 2.112-4.928 2.603-7.573 1.557-8.341 6.016-11.499 14.443-10.155 2.731 0.427 5.483 1.963 8-0.512 3.84-3.008 7.445-6.229 10.261-10.24 2.304-1.92 1.643-4.416 1.579-6.933-0.256-9.685 3.797-13.867 13.355-13.675 2.517 0.043 4.992 0.576 7.040-1.429 4.032-2.773 7.211-6.421 10.283-10.176 2.709-2.432 1.024-5.077 0.512-7.765-1.749-8.875 2.411-14.144 11.371-14.421 3.008-0.085 6.208 1.003 8.64-1.771 2.133-4.309 6.037-7.595 7.232-12.459 1.707-2.368 0.597-4.8 0.192-7.232-1.408-8.768 0.448-12.139 8.875-15.275 2.453-0.917 4.651-1.771 5.824-4.245 6.891-0.235 7.104-7.104 10.624-10.688 1.813-2.965-0.213-5.291-1.237-7.851-3.648-9.109-1.024-14.336 8.597-16.917 2.475-0.704 5.141-0.683 5.867-3.84z" />
<glyph unicode="&#xe912;" horiz-adv-x="1248" d="M423.317 464.405c7.787 2.731 14.763 1.429 19.371-5.568 4.587-6.976 3.243-13.909-2.496-19.947-9.387-5.376-17.344-4.48-22.379 2.475-5.568 7.701-3.691 15.595 5.504 23.040z" />
<glyph unicode="&#xe913;" horiz-adv-x="1248" d="M554.027 423.872c-7.253-4.48-14.528-5.333-20.928 1.109-6.379 6.421-5.653 13.696-1.045 20.907 9.216 6.357 16.128 6.613 22.229 0.832 6.315-5.952 6.229-13.269-0.256-22.848z" />
<glyph unicode="&#xe914;" horiz-adv-x="1248" d="M405.995 527.637c-2.347-4.48-6.016-7.573-10.389-9.92-11.947-0.192-18.155 3.883-19.627 12.885-1.28 7.893 4.693 16.043 12.693 17.301 7.957 1.237 16.064-4.587 17.301-12.672 0.341-2.475 0.021-5.056 0.021-7.595z" />
<glyph unicode="&#xe915;" horiz-adv-x="1248" d="M546.155 331.371c6.187 5.781 13.205 8.064 20.736 3.221 7.232-4.629 8.213-11.691 5.675-19.477-6.528-8.555-13.632-10.816-21.077-6.72-7.915 4.373-9.685 11.968-5.333 22.976z" />
<glyph unicode="&#xe916;" horiz-adv-x="1248" d="M521.771 456.128c-6.805-5.12-14.037-7.467-21.333-1.408-6.379 5.312-7.275 12.181-3.712 19.648 7.659 8.064 15.232 9.557 22.229 4.395 6.997-5.141 7.893-12.373 2.816-22.635z" />
<glyph unicode="&#xe917;" horiz-adv-x="1248" d="M584.832 389.739c-6.272-3.2-12.48-4.757-18.901-0.213-7.957 5.653-8.576 13.888-1.621 24.171 9.728 4.8 16.213 4.309 21.611-1.643 5.504-6.059 5.184-12.672-1.088-22.315z" />
<glyph unicode="&#xe918;" horiz-adv-x="1248" d="M479.595 392.811c7.253 3.712 14.272 3.584 19.925-2.667 5.995-6.635 4.523-13.867 0.192-20.885-5.312-3.584-10.795-6.016-17.323-3.285-10.901 4.565-12.224 16.981-2.795 26.837z" />
<glyph unicode="&#xe919;" horiz-adv-x="1248" d="M584.469 306.411c4.928 6.315 10.837 10.091 19.115 6.827 7.637-3.008 10.432-9.045 9.941-16.917-2.56-6.677-6.272-12.075-14.336-12.309-6.165-0.192-10.944 2.325-14.165 7.637-2.944 4.843-2.069 9.771-0.555 14.763z" />
<glyph unicode="&#xe91a;" horiz-adv-x="1248" d="M625.728 287.509c2.411 4.395 5.632 7.979 10.155 10.283 12.139 0.405 19.179-4.139 20.267-13.056 0.96-7.829-5.248-15.765-13.312-17.024-7.531-1.173-15.381 4.395-16.832 12.181-0.448 2.475-0.213 5.077-0.277 7.616z" />
<glyph unicode="&#xe91b;" horiz-adv-x="1248" d="M404.523 505.323c7.872 0.512 13.931-2.304 16.896-9.899 3.2-8.171-0.533-14.144-6.763-19.136-15.147-5.76-24 6.4-22.357 16.277 1.216 7.168 6.251 10.347 12.224 12.757z" />
<glyph unicode="&#xe91c;" horiz-adv-x="1248" d="M606.955 350.549c-7.445-1.301-14.080-0.107-18.133 6.976-4.203 7.317-2.197 13.909 3.243 19.776 10.325 4.885 18.496 3.392 22.997-4.245 4.779-8.149 2.069-15.659-8.107-22.507z" />
<glyph unicode="&#xe91d;" horiz-adv-x="1248" d="M448.96 426.837c7.36 3.456 14.336 3.221 19.861-3.243 5.547-6.464 4.8-13.355 0.043-20.053-8.853-6.613-17.109-6.485-23.040 0.384-5.931 6.827-4.864 14.507 3.136 22.912z" />
<glyph unicode="&#xe91e;" horiz-adv-x="1248" d="M447.168 508.757c-4.608-6.421-10.795-8.981-18.325-6.421-7.637 2.581-10.496 8.704-10.517 16.405 2.539 7.936 7.296 13.291 16.235 12.992 11.093-0.363 16.277-9.984 12.608-22.976z" />
<glyph unicode="&#xe91f;" horiz-adv-x="1248" d="M484.651 483.221c-5.867-5.12-12.331-6.763-19.179-2.368-7.125 4.544-8.427 11.371-6.272 19.157 6.528 9.024 14.421 11.477 22.123 6.827 7.787-4.715 9.024-13.504 3.328-23.616z" />
<glyph unicode="&#xe920;" horiz-adv-x="1248" d="M511.723 360.661c6.613 4.757 13.483 5.483 19.904 0.128 6.059-5.056 7.083-11.627 3.861-18.837-7.787-8.981-16-10.56-23.296-4.437-6.997 5.867-7.147 13.909-0.469 23.147z" />
<glyph unicode="&#xe921;" horiz-adv-x="1248" d="M630.763 311.275c-8.107-1.877-15.189-0.619-19.541 7.232-3.819 6.891-1.664 13.632 6.357 21.333 15.104 2.091 23.808-4.629 21.995-16.875-0.853-5.568-4.565-8.789-8.811-11.691z" />
<glyph unicode="&#xe922;" horiz-adv-x="1248" d="M467.413 640.085c-3.84 13.205-1.259 19.221 10.773 25.6 69.227 37.035 150.315 46.485 225.237 21.461 4.885-1.728 7.189-1.771 8.469 4.523 7.317 35.925 12.331 72.021 11.733 108.8-0.149 9.749 2.069 19.157 6.805 27.733 9.451 17.173 27.136 25.216 45.931 21.184 28.117-5.525 38.229-35.008 37.141-60.928 68.843 70.464 187.52 79.445 259.115 8.491 0-2.837 0-5.675 0-8.512-1.024-0.811-2.411-1.387-3.029-2.432-8.405-18.368-24.512-10.411-36.181-0.597-71.339 51.648-176.277 25.941-215.851-52.821-6.507-9.621 23.253-18.496 30.016-22.037 84.715-34.027 129.579 30.827 151.723 7.915 5.461-13.973 3.221-20.629-10.155-27.797-57.259-30.656-115.072-31.723-173.355-2.859-8.704 4.309-8.747 4.352-10.475-5.077 0.277-13.867-17.792-44.373-6.848-50.773 241.323-228.608-38.699-547.435-302.251-577.301-109.227-25.408-258.795-1.216-297.045 119.104-5.099 61.653 54.933 99.776 86.656 145.493 66.795 76.715 32.256 188.907 100.181 266.539 16.384 22.635 44.779-3.84 24.405-24.491-61.973-81.6-26.283-186.581-99.115-264.96-20.715-26.283-44.288-50.197-64.256-77.12-16.491-22.229-17.835-39.147-3.52-62.656 44.928-70.507 137.792-84.203 214.699-73.408 202.091 18.859 447.659 190.677 386.325 418.155-32.789 108.779-147.008 181.035-259.243 163.307-32.149-4.16-62.229-14.080-90.901-28.971-12.544-6.485-18.005-5.291-26.987 4.437zM778.944 759.168c-0.555 13.909 6.229 55.403-11.115 56.704-6.336 0.597-7.979-4.373-9.088-9.216-2.027-39.893-3.776-79.68-13.077-118.784-3.541-16.853-3.371-16.597 11.627-25.536 17.088-15.424 21.205 87.189 21.653 96.832z" />
<glyph unicode="&#xe923;" horiz-adv-x="1248" d="M999.275 718.464c-21.632 22.933-67.285-41.877-151.723-7.915-6.955 3.776-36.331 12.096-30.016 22.037 42.901 85.781 158.208 104.597 229.845 43.2-4.779-8.085-9.536-16.171-14.315-24.277-17.877 11.883-36.672-7.061-23.296-25.387-3.52-2.539-7.019-5.099-10.496-7.659z" />
<glyph unicode="&#xe924;" horiz-adv-x="1248" d="M1009.749 726.144c-13.376 18.304 5.44 37.269 23.296 25.387 15.744-17.109-4.139-39.125-23.296-25.387z" />
<glyph unicode="&#xe925;" horiz-adv-x="1248" d="M467.413 640.085c9.003-9.728 14.464-10.923 26.965-4.437 75.52 39.68 170.837 44.352 244.501-1.643 104.021-58.923 145.237-195.285 94.059-302.784-81.131-180.416-311.851-283.691-501.611-239.232-49.131 14.955-127.595 70.955-84.309 127.232 19.968 26.923 43.541 50.837 64.256 77.12 72.853 78.464 37.099 183.275 99.093 264.96 8.171 10.859 10.432 18.859 1.515 29.653 5.845 6.293 11.691 12.565 17.536 18.859 17.621-13.824 37.205 2.048 27.179 21.952 3.627 2.795 7.211 5.547 10.816 8.32zM505.28 159.723c0.128-10.795 9.28-18.837 20.011-16.277 23.36 6.315 133.547 37.76 115.691 70.336-5.717 10.56-19.755 9.728-28.864 2.581-19.52-12.693-40.384-22.72-62.357-30.336-14.443-6.955-44.757-5.461-44.48-26.304zM474.475 168.939c-22.336 1.067-22.421-33.707-0.405-33.707 20.885-0.235 22.528 33.856 0.405 33.707z" />
<glyph unicode="&#xe926;" horiz-adv-x="1248" d="M456.619 631.787c10.005-19.904-9.557-35.776-27.179-21.952-12.117 17.664 8.811 39.083 27.179 21.952z" />
<glyph unicode="&#xe927;" horiz-adv-x="1248" d="M778.944 759.168c-0.512-9.877-4.437-111.915-21.675-96.832-14.997 8.939-15.168 8.683-11.627 25.536 9.301 39.083 11.051 78.912 13.077 118.784 1.109 4.843 2.752 9.813 9.088 9.216 17.301-1.088 10.624-42.944 11.136-56.704z" />
<glyph unicode="&#xe928;" horiz-adv-x="1248" d="M505.28 159.723c-0.299 20.843 30.059 19.349 44.48 26.304 21.973 7.616 42.837 17.643 62.357 30.336 9.088 7.125 23.168 7.979 28.864-2.581 17.92-32.491-92.224-64-115.691-70.336-10.731-2.56-19.883 5.483-20.011 16.277z" />
<glyph unicode="&#xe929;" horiz-adv-x="1248" d="M474.475 168.939c22.123 0.149 20.48-33.92-0.405-33.707-21.995 0-21.931 34.773 0.405 33.707z" />
<glyph unicode="&#xe92a;" glyph-name="mas" horiz-adv-x="995" d="M497.49 141.076c-169.147 0-306.785 137.639-306.785 306.785s137.639 306.785 306.509 306.785c0.276 0 0.276 0 0.553 0 81.809 0 158.644-31.784 216.408-89.548s89.825-134.875 90.101-216.684c0 0 0 0 0-0.276 0 0 0 0 0 0v-0.276c0-169.147-137.639-306.785-306.785-306.785zM497.766 699.371c-139.021 1.382-251.785-112.764-251.785-251.509s112.764-251.509 251.509-251.509c138.744 0 251.509 112.764 251.509 251.509 0 67.438-26.256 130.729-73.794 177.991-47.538 47.538-110.553 73.518-177.438 73.518zM497.213 296.127c-15.201 0-27.638 12.437-27.638 27.638v248.192c0 15.201 12.437 27.638 27.638 27.638s27.638-12.437 27.638-27.638v-248.192c0-15.201-12.437-27.638-27.638-27.638zM621.31 420.223h-248.192c-15.201 0-27.638 12.437-27.638 27.638s12.437 27.638 27.638 27.638h248.192c15.201 0 27.638-12.437 27.638-27.638s-12.437-27.638-27.638-27.638z" />
<glyph unicode="&#xe92b;" glyph-name="menos" horiz-adv-x="995" d="M497.49 141.076c-169.147 0-306.785 137.639-306.785 306.785s137.639 306.785 306.509 306.785c0.276 0 0.276 0 0.553 0 81.809 0 158.644-31.784 216.408-89.548s89.825-134.875 90.101-216.684c0 0 0 0 0-0.276 0 0 0 0 0 0v-0.276c0-169.147-137.639-306.785-306.785-306.785zM497.766 699.371c-139.021 1.382-251.785-112.764-251.785-251.509s112.764-251.509 251.509-251.509c138.744 0 251.509 112.764 251.509 251.509 0 67.438-26.256 130.729-73.794 177.991-47.538 47.538-110.553 73.518-177.438 73.518zM621.31 420.223h-248.192c-15.201 0-27.638 12.437-27.638 27.638s12.437 27.638 27.638 27.638h248.192c15.201 0 27.638-12.437 27.638-27.638s-12.437-27.638-27.638-27.638z" />
<glyph unicode="&#xe92c;" glyph-name="person" horiz-adv-x="1043" d="M456.913 18.394c-23.135 8.154-32.237 23.324-29.772 47.692 1.991 20.29 1.517 40.77 2.181 61.061 2.939 92.444 2.086 184.889 2.37 277.333 0.19 53.855 0 107.804-0.569 161.849-6.447-11.947-9.671-25.031-11.852-38.21-3.793-23.135-6.637-46.364-4.077-69.973 0.664-6.353 0.379-12.8 0.474-19.247 0.095-20.48-6.732-31.004-22.661-35.081-18.394-4.646-38.4 3.698-46.649 19.532-1.896 3.698-3.413 7.585-3.982 11.852-3.698 30.341-2.939 60.681 1.896 90.833 5.689 35.935 16.308 70.068 36.314 100.883 24.652 37.926 58.406 61.724 103.538 70.258 40.676 7.68 79.55 3.413 116.907-12.99 29.961-13.179 51.39-36.219 67.508-64.19 23.514-40.486 33.564-84.764 35.556-131.224 0.759-18.204 0.948-36.314-1.991-54.234-4.172-25.695-35.081-40.201-58.027-27.591-9.861 5.404-15.076 13.748-15.076 25.221-0.095 22.566 2.655 45.132 0.284 67.793-2.56 23.988-6.637 47.502-16.119 69.879-0.853 2.086-1.896 4.077-2.939 5.973-0.19 0.379-0.853 0.569-1.327 0.853 0-31.573 0-63.052 0-94.436 0-4.172 0.474-8.344 0.664-12.516 2.75-84.29 1.327-168.676 2.465-253.061 0.664-51.39 1.422-102.779 4.267-154.074 1.233-21.997-6.447-33.754-28.539-44.089-7.87 0-15.644 0-23.514 0-20.29 6.447-31.384 19.437-32.616 41.339-2.75 49.588-3.129 99.271-4.361 148.859-0.948 39.348-0.379 78.696-0.474 118.044 0 2.465 0 5.025-0.19 7.49-0.19 3.224-2.37 4.172-5.215 4.172s-4.93-1.138-5.12-4.267c-0.19-2.465-0.19-5.025-0.19-7.49 0.19-67.224-0.095-134.542-1.991-201.766-0.569-21.713-2.086-43.425-2.844-65.138-0.759-21.997-12.326-34.987-32.616-41.339-7.206 0-14.412 0-21.713 0zM520.344 731.686c-41.529 0.569-72.723 32.996-72.344 74.999 0.379 38.59 34.513 72.439 75.662 70.921 38.305-1.422 70.542-33.944 70.542-72.913 0-40.486-33.564-73.576-73.861-73.007z" />
<glyph unicode="&#xe92d;" glyph-name="check" horiz-adv-x="1078" d="M726.202 585.274l-33.848 34.532c-1.368 1.368-3.419 2.393-5.47 2.393v0c-2.051 0-4.103-0.684-5.47-2.393l-233.52-235.571-85.134 85.134c-2.735 3.077-7.522 3.077-10.599 0.342 0 0 0 0-0.342-0.342l-34.19-34.19c-3.077-3.077-3.077-7.864 0-10.941 0 0 0 0 0 0l107.358-107.358c5.812-6.496 13.676-10.257 22.224-10.941 8.548 0.684 16.411 4.445 22.224 10.599h0.342l256.085 257.453c3.419 3.419 3.419 8.206 0.342 11.283zM522.086 809.221c190.44 0 344.638-154.198 344.638-344.638s-154.198-344.638-344.638-344.638-344.296 154.198-344.296 344.638c0 91.288 36.242 179.157 100.861 243.777 64.278 64.62 152.147 100.861 243.435 100.861zM522.428 862.558c-220.186 0-398.317-178.132-398.317-398.317s178.132-398.317 398.317-398.317c220.186 0 398.317 178.132 398.317 398.317 0 0 0 0 0 0.342 0 219.844-178.473 398.317-398.317 397.975 0 0.342-0.342 0.342 0 0v0z" />
<glyph unicode="&#xe92e;" glyph-name="mail" horiz-adv-x="1316" d="M1138.612 695.241l-242.737-247.241c-1.501-1.501-2.002-4.504 0-6.006 0 0 0 0 0 0l169.666-180.676c11.511-11.511 11.511-30.029 0-41.541 0 0 0 0 0 0-11.511-11.511-30.029-11.511-41.541 0l-169.165 180.176c-2.002 2.002-4.504 2.002-6.506 0 0 0 0 0 0 0l-41.040-42.041c-34.033-35.034-80.579-54.553-129.627-54.553-49.548 0-97.595 20.52-132.129 56.055l-39.539 40.54c-2.002 2.002-4.504 2.002-6.506 0 0 0 0 0 0 0l-169.165-180.176c-11.511-11.511-30.029-11.511-41.541 0s-11.511 30.029 0 41.541c0 0 0 0 0 0l170.166 181.177c1.501 2.002 1.501 4.504 0 6.506l-242.737 246.24c-1.501 2.002-4.504 2.002-6.506 0-0.5-0.5-1.001-1.501-1.001-3.003v-494.483c0-39.539 32.532-72.070 72.070-72.070h793.275c39.539 0 72.070 32.532 72.070 72.070v494.983c0 2.502-2.502 4.504-4.504 4.004-1.001 0-2.002-0.5-3.003-1.501zM677.662 362.416c33.032 0 65.064 13.013 88.086 37.036l353.846 359.851c-12.512 10.010-28.528 16.016-44.543 16.016h-794.776c-16.016 0-32.031-5.505-44.543-16.016l353.846-359.851c23.022-24.023 54.553-37.036 88.086-37.036z" />
<glyph unicode="&#xe92f;" glyph-name="un-check" horiz-adv-x="1078" d="M522.086 809.221c190.44 0 344.638-154.198 344.638-344.638s-154.198-344.638-344.638-344.638-344.296 154.198-344.296 344.638c0 91.288 36.242 179.157 100.861 243.777 64.278 64.62 152.147 100.861 243.435 100.861zM522.428 862.558c-220.186 0-398.317-178.132-398.317-398.317s178.132-398.317 398.317-398.317c220.186 0 398.317 178.132 398.317 398.317 0 0 0 0 0 0.342 0 219.844-178.473 398.317-398.317 397.975 0 0.342-0.342 0.342 0 0v0z" />
<glyph unicode="&#xe930;" glyph-name="wpp" horiz-adv-x="1316" d="M679.163 905.947c-247.742 1.001-448.938-198.694-449.939-445.935 0-81.079 22.522-160.657 64.563-230.225l-81.079-239.734 248.743 79.077c218.213-119.617 491.98-40.039 611.597 178.174 36.035 65.064 55.054 138.135 55.554 212.708-1.001 247.241-202.197 446.936-449.439 445.935zM902.882 290.346c-18.018-27.527-47.046-46.045-79.578-51.050-21.021-1.001-21.521-16.516-136.633 33.533-79.077 40.54-144.641 102.6-189.685 179.175-25.525 35.034-40.54 76.575-42.542 119.617 1.001 36.035 16.516 70.068 44.043 93.591 8.008 8.508 19.519 13.013 31.030 13.013 9.009 0 15.015 0.5 21.521 0s17.017 1.501 25.525-21.521 29.529-80.078 32.031-86.084c3.503-6.006 3.503-14.014 0-20.020-3.003-6.506-7.507-13.013-12.012-18.518-6.006-6.506-12.512-14.514-18.018-19.519s-12.012-11.511-6.006-23.022c16.016-30.029 37.036-57.556 61.060-81.58 26.526-25.024 57.056-45.544 90.088-60.059 11.511-6.006 18.018-5.505 25.024 2.002s30.029 32.031 38.037 43.042 15.515 9.009 26.025 5.005 65.564-34.033 77.075-40.039 19.019-9.509 21.521-14.014c2.502-18.018-0.5-37.036-8.508-53.552v0z" />
<glyph unicode="&#xe94a;" glyph-name="minus" horiz-adv-x="995" d="M497.49 141.076c-169.147 0-306.785 137.639-306.785 306.785s137.639 306.785 306.509 306.785c0.276 0 0.276 0 0.553 0 81.809 0 158.644-31.784 216.408-89.548s89.825-134.875 90.101-216.684c0 0 0 0 0-0.276 0 0 0 0 0 0v-0.276c0-169.147-137.639-306.785-306.785-306.785zM497.766 699.371c-139.021 1.382-251.785-112.764-251.785-251.509s112.764-251.509 251.509-251.509c138.744 0 251.509 112.764 251.509 251.509 0 67.438-26.256 130.729-73.794 177.991-47.538 47.538-110.553 73.518-177.438 73.518zM621.31 420.223h-248.192c-15.201 0-27.638 12.437-27.638 27.638s12.437 27.638 27.638 27.638h248.192c15.201 0 27.638-12.437 27.638-27.638s-12.437-27.638-27.638-27.638z" />
<glyph unicode="&#xe94b;" glyph-name="person1" horiz-adv-x="1043" d="M456.913 18.394c-23.135 8.154-32.237 23.324-29.772 47.692 1.991 20.29 1.517 40.77 2.181 61.061 2.939 92.444 2.086 184.889 2.37 277.333 0.19 53.855 0 107.804-0.569 161.849-6.447-11.947-9.671-25.031-11.852-38.21-3.793-23.135-6.637-46.364-4.077-69.973 0.664-6.353 0.379-12.8 0.474-19.247 0.095-20.48-6.732-31.004-22.661-35.081-18.394-4.646-38.4 3.698-46.649 19.532-1.896 3.698-3.413 7.585-3.982 11.852-3.698 30.341-2.939 60.681 1.896 90.833 5.689 35.935 16.308 70.068 36.314 100.883 24.652 37.926 58.406 61.724 103.538 70.258 40.676 7.68 79.55 3.413 116.907-12.99 29.961-13.179 51.39-36.219 67.508-64.19 23.514-40.486 33.564-84.764 35.556-131.224 0.759-18.204 0.948-36.314-1.991-54.234-4.172-25.695-35.081-40.201-58.027-27.591-9.861 5.404-15.076 13.748-15.076 25.221-0.095 22.566 2.655 45.132 0.284 67.793-2.56 23.988-6.637 47.502-16.119 69.879-0.853 2.086-1.896 4.077-2.939 5.973-0.19 0.379-0.853 0.569-1.327 0.853 0-31.573 0-63.052 0-94.436 0-4.172 0.474-8.344 0.664-12.516 2.75-84.29 1.327-168.676 2.465-253.061 0.664-51.39 1.422-102.779 4.267-154.074 1.233-21.997-6.447-33.754-28.539-44.089-7.87 0-15.644 0-23.514 0-20.29 6.447-31.384 19.437-32.616 41.339-2.75 49.588-3.129 99.271-4.361 148.859-0.948 39.348-0.379 78.696-0.474 118.044 0 2.465 0 5.025-0.19 7.49-0.19 3.224-2.37 4.172-5.215 4.172s-4.93-1.138-5.12-4.267c-0.19-2.465-0.19-5.025-0.19-7.49 0.19-67.224-0.095-134.542-1.991-201.766-0.569-21.713-2.086-43.425-2.844-65.138-0.759-21.997-12.326-34.987-32.616-41.339-7.206 0-14.412 0-21.713 0zM520.344 731.686c-41.529 0.569-72.723 32.996-72.344 74.999 0.379 38.59 34.513 72.439 75.662 70.921 38.305-1.422 70.542-33.944 70.542-72.913 0-40.486-33.564-73.576-73.861-73.007z" />
</font>
</defs>
</svg>
